<svg width="85" height="85" viewBox="0 0 85 85" fill="none" xmlns="http://www.w3.org/2000/svg">
<circle cx="42.5" cy="42.5" r="42.5" fill="#EE9D24"/>
<path d="M59.565 24.4349C59.3626 24.2334 59.1068 24.0939 58.8278 24.0328C58.5488 23.9717 58.2581 23.9915 57.99 24.0899L24.99 36.0899C24.7054 36.1978 24.4604 36.3898 24.2875 36.6403C24.1146 36.8908 24.022 37.188 24.022 37.4924C24.022 37.7968 24.1146 38.094 24.2875 38.3445C24.4604 38.595 24.7054 38.787 24.99 38.8949L39.39 44.6549L45.15 59.0549C45.2582 59.327 45.4437 59.5615 45.6836 59.7294C45.9235 59.8973 46.2073 59.9913 46.5 59.9999C46.8031 59.9937 47.0973 59.8958 47.3436 59.719C47.59 59.5423 47.777 59.2951 47.88 59.0099L59.88 26.0099C59.9822 25.7445 60.0068 25.4555 59.9511 25.1767C59.8953 24.8978 59.7614 24.6406 59.565 24.4349V24.4349ZM46.5 54.2999L42.315 43.7999L49.5 36.6149L47.385 34.4999L40.14 41.7449L29.7 37.4999L55.995 28.0049L46.5 54.2999Z" fill="white"/>
</svg>
