<svg width="67" height="130" viewBox="0 0 67 130" fill="none" xmlns="http://www.w3.org/2000/svg">
<g filter="url(#filter0_f_8_219)">
<path fill-rule="evenodd" clip-rule="evenodd" d="M32.7226 106.128C37.6363 106.128 41.6559 102.109 41.6559 97.195V75.3618C41.6559 70.5354 45.5683 66.6226 50.3947 66.6226C55.2212 66.6226 59.1336 70.5355 59.1336 75.3618V97.195C59.1336 102.109 63.1531 106.128 68.0668 106.128C72.9805 106.128 77.0001 102.109 77.0001 97.195V75.3623V75.3619C76.9996 60.4572 65.0889 48.376 50.3948 48.376C35.7007 48.376 23.7896 60.4577 23.7896 75.3619V97.195C23.7896 102.109 27.8091 106.128 32.7228 106.128L32.7226 106.128Z" fill="#F1A904"/>
<path fill-rule="evenodd" clip-rule="evenodd" d="M28.2697 55.6521C26.3192 58.249 24.5727 60.9341 23.7337 63.6832V54.1612C23.346 53.5648 23.1205 52.8531 23.1205 52.089C23.1205 50.3389 24.3014 48.8651 25.9099 48.42C24.1646 47.3512 23 45.4265 23 43.23C23 40.6836 24.5653 38.503 26.7863 37.597C25.5667 36.0606 24.8378 34.1173 24.8378 32.0035C24.8378 27.0312 28.8687 23 33.841 23C38.8135 23 42.8445 27.0311 42.8445 32.0035C42.8445 36.6766 39.2836 40.5182 34.7269 40.9633C35.0084 41.664 35.1639 42.4288 35.1639 43.23C35.1639 46.4434 32.6714 49.0748 29.5142 49.2966C30.2645 49.992 30.7343 50.9857 30.7343 52.089C30.7343 53.7189 29.7099 55.1093 28.2698 55.6522L28.2697 55.6521Z" fill="#C29206"/>
</g>
<defs>
<filter id="filter0_f_8_219" x="0.0799999" y="0.0799999" width="99.8401" height="128.968" filterUnits="userSpaceOnUse" color-interpolation-filters="sRGB">
<feFlood flood-opacity="0" result="BackgroundImageFix"/>
<feBlend mode="normal" in="SourceGraphic" in2="BackgroundImageFix" result="shape"/>
<feGaussianBlur stdDeviation="11.46" result="effect1_foregroundBlur_8_219"/>
</filter>
</defs>
</svg>
