<svg width="162" height="41" viewBox="0 0 162 41" fill="none" xmlns="http://www.w3.org/2000/svg">
<path fill-rule="evenodd" clip-rule="evenodd" d="M3.56587 30.4885C5.36802 30.4885 6.84226 29.0142 6.84226 27.2121V19.2045C6.84226 17.4344 8.27717 15.9993 10.0473 15.9993C11.8175 15.9993 13.2524 17.4344 13.2524 19.2045V27.2121C13.2524 29.0142 14.7266 30.4885 16.5288 30.4885C18.3309 30.4885 19.8052 29.0142 19.8052 27.2121V19.2047V19.2045C19.805 13.7381 15.4366 9.30713 10.0474 9.30713C4.65811 9.30713 0.289551 13.7382 0.289551 19.2045V27.2121C0.289551 29.0143 1.76378 30.4885 3.56593 30.4885L3.56587 30.4885Z" fill="#F1A904"/>
<path fill-rule="evenodd" clip-rule="evenodd" d="M1.93272 11.9756C1.21737 12.928 0.576795 13.9128 0.269082 14.9211V11.4287C0.12691 11.21 0.0441766 10.949 0.0441766 10.6688C0.0441766 10.0269 0.477308 9.48635 1.06725 9.32311C0.427146 8.9311 0 8.22518 0 7.41962C0 6.48566 0.574099 5.68593 1.38865 5.35362C0.941358 4.79013 0.674034 4.07739 0.674034 3.30213C0.674034 1.47849 2.15243 0 3.97607 0C5.79981 0 7.2782 1.47847 7.2782 3.30213C7.2782 5.01606 5.9722 6.42502 4.30098 6.58826C4.40423 6.84523 4.46126 7.12576 4.46126 7.41962C4.46126 8.59816 3.54709 9.56325 2.38917 9.6446C2.66434 9.89964 2.83665 10.2641 2.83665 10.6688C2.83665 11.2665 2.46092 11.7765 1.93275 11.9756L1.93272 11.9756Z" fill="#C29206"/>
<path d="M33.2872 15.8568C32.1624 15.8568 31.207 16.2565 30.4073 17.0493C29.6145 17.8421 29.2215 18.8111 29.2215 19.9495C29.2215 21.0744 29.6145 22.0298 30.4073 22.8226C31.207 23.6221 32.1624 24.0152 33.2872 24.0152C34.4256 24.0152 35.3946 23.6221 36.1874 22.8226C36.9802 22.0298 37.38 21.0744 37.38 19.9495C37.38 18.8111 36.9802 17.8421 36.1874 17.0493C35.3946 16.2565 34.4256 15.8568 33.2872 15.8568ZM43.9325 19.9495V27.2745C43.9325 28.1961 43.6073 28.9821 42.9567 29.6123C42.3063 30.2493 41.466 30.5677 40.436 30.5677C39.1892 30.5677 38.1728 30.1069 37.38 29.1786C36.079 30.1069 34.5137 30.5677 32.6706 30.5677C30.8343 30.5677 29.1402 30.0866 27.602 29.1176C26.0571 28.1554 24.8509 26.8544 23.9768 25.2281C23.1026 23.6019 22.669 21.8401 22.669 19.9495C22.669 18.0251 23.1433 16.2498 24.0852 14.6167C25.0338 12.9836 26.3213 11.6894 27.9611 10.7339C29.5941 9.7853 31.3695 9.30418 33.2872 9.30418C35.2048 9.30418 36.9802 9.77856 38.6065 10.7136C40.2395 11.6555 41.5338 12.9429 42.4892 14.5761C43.4514 16.2091 43.9325 17.998 43.9325 19.9495L43.9325 19.9495ZM56.3532 9.30418C57.6406 9.30418 58.9078 9.51429 60.1681 9.9344C61.4217 10.3477 62.4314 10.9508 63.1835 11.7503C63.6714 12.2382 63.9153 12.8752 63.9153 13.6545C63.9153 14.5015 63.6376 15.2536 63.0751 15.9177C62.5127 16.5818 61.8012 16.907 60.9406 16.907C60.0665 16.907 59.355 16.7308 58.7926 16.3717C58.4808 16.1481 58.2234 15.9855 58.0337 15.8771C57.8371 15.7687 57.5932 15.6737 57.295 15.5789C56.9969 15.4841 56.6852 15.4434 56.3532 15.4434C55.479 15.4434 54.7676 15.789 54.2119 16.4937C53.6562 17.1916 53.3785 18.1064 53.3785 19.2312V27.3152C53.3785 28.1961 53.0532 28.9618 52.4162 29.6055C51.7725 30.2493 51 30.5677 50.0988 30.5677C49.2111 30.5677 48.4522 30.2424 47.8085 29.592C47.1647 28.9482 46.8462 28.1826 46.8462 27.3152V19.2312C46.8462 16.1888 47.7271 13.7697 49.4822 11.9875C51.244 10.1987 53.5343 9.30418 56.3532 9.30418ZM67.4051 40.0747C66.5173 40.0747 65.7584 39.7494 65.1147 39.1057C64.4709 38.4551 64.1525 37.6963 64.1525 36.8221V19.6717C64.1525 17.7201 64.6404 15.9516 65.6093 14.3592C66.5851 12.7668 67.8726 11.52 69.4785 10.6391C71.0912 9.75135 72.8327 9.30416 74.7097 9.30416C76.6341 9.30416 78.4095 9.77853 80.0561 10.7272C81.6959 11.669 82.9902 12.9565 83.9456 14.5896C84.8942 16.2158 85.3754 17.9912 85.3754 19.9088C85.3754 21.3521 85.1111 22.7277 84.5758 24.0491C84.0473 25.3637 83.3426 26.4952 82.4617 27.4439C81.5875 28.3858 80.5372 29.1447 79.3175 29.7139C78.0978 30.2831 76.8374 30.5677 75.5297 30.5677C73.5307 30.5677 71.9112 30.1069 70.6847 29.1786V36.8221C70.6847 37.7097 70.3595 38.4687 69.7225 39.1124C69.0788 39.7561 68.3063 40.0746 67.4051 40.0746L67.4051 40.0747ZM74.7097 24.0152C75.8481 24.0152 76.8171 23.6154 77.6235 22.8159C78.423 22.0163 78.8228 21.0472 78.8228 19.9089C78.8228 18.7841 78.423 17.8286 77.6235 17.0358C76.8171 16.2498 75.8481 15.8568 74.7097 15.8568C73.5848 15.8568 72.6294 16.2498 71.8366 17.0358C71.0371 17.8286 70.6441 18.7841 70.6441 19.9089C70.6441 21.0472 71.0371 22.0163 71.8366 22.8159C72.6294 23.6154 73.5848 24.0152 74.7097 24.0152ZM97.9248 9.30421C99.6324 9.30421 101.218 9.64297 102.695 10.3206C104.172 10.9915 105.338 11.8927 106.192 13.0107C107.046 14.1288 107.472 15.3147 107.472 16.575C107.472 17.0764 107.337 17.4762 107.066 17.7744C106.795 18.0725 106.334 18.391 105.683 18.7367L95.2821 24.1779C95.7293 24.5303 96.5492 24.7132 97.7215 24.7132C99.1512 24.7132 100.479 24.1033 101.692 22.8836C102.173 22.4093 102.627 22.0502 103.054 21.813C103.481 21.5759 103.969 21.4539 104.511 21.4539C105.385 21.4539 106.076 21.7181 106.591 22.2467C107.1 22.7819 107.35 23.4935 107.35 24.3947C107.35 25.0452 107.201 25.6008 106.896 26.0616C105.914 27.4914 104.613 28.5959 102.993 29.3887C101.374 30.1748 99.6324 30.5678 97.7621 30.5678C95.7768 30.5678 93.9675 30.0934 92.3344 29.138C90.7014 28.1826 89.4275 26.8951 88.5127 25.2757C87.5979 23.6561 87.144 21.8807 87.144 19.9496C87.144 18.0251 87.625 16.2498 88.5941 14.6167C89.5562 12.9837 90.8708 11.6894 92.5242 10.734C94.1776 9.78535 95.98 9.30423 97.9248 9.30423V9.30421ZM98.04 15.0843C97.5521 15.0843 97.0371 15.1859 96.495 15.3891C95.953 15.5992 95.4312 15.8906 94.9433 16.2769C94.4555 16.6563 94.0488 17.1645 93.7304 17.8015C93.4187 18.4384 93.2493 19.1364 93.2357 19.9089L100.798 15.9787C100.208 15.3824 99.2868 15.0843 98.0401 15.0843H98.04ZM121.011 9.30421C122.732 9.30421 124.25 9.75825 125.565 10.6662C126.879 11.5742 127.889 12.7871 128.58 14.3186C129.278 15.8499 129.624 17.5643 129.624 19.4685V27.3152C129.624 28.1826 129.305 28.9482 128.661 29.592C128.018 30.2425 127.259 30.5677 126.371 30.5677C125.497 30.5677 124.724 30.2425 124.067 29.592C123.403 28.9482 123.071 28.1826 123.071 27.3152V19.3938C123.071 18.3978 122.753 17.5508 122.122 16.8393C121.485 16.1345 120.733 15.7754 119.859 15.7754C118.985 15.7754 118.233 16.1345 117.603 16.8393C116.973 17.5508 116.661 18.3978 116.661 19.3938V27.3152C116.661 28.1826 116.336 28.9482 115.692 29.592C115.041 30.2425 114.269 30.5677 113.368 30.5677C112.493 30.5677 111.735 30.2425 111.084 29.592C110.434 28.9482 110.108 28.1826 110.108 27.3152V12.6042C110.108 11.6894 110.434 10.9102 111.084 10.2664C111.735 9.62949 112.493 9.30421 113.368 9.30421C113.964 9.30421 114.513 9.46005 115.014 9.76499C115.516 10.0699 115.915 10.4697 116.207 10.9712C117.664 9.85983 119.263 9.30421 121.011 9.30421H121.011ZM136 9.30421C136.908 9.30421 137.68 9.62949 138.311 10.2664C138.941 10.9102 139.253 11.6894 139.253 12.6042V27.3152C139.253 28.1961 138.934 28.9618 138.297 29.6055C137.667 30.2493 136.894 30.5677 136 30.5677C135.126 30.5677 134.353 30.2425 133.696 29.592C133.032 28.9482 132.7 28.1826 132.7 27.3152V12.6042C132.7 11.703 133.032 10.9305 133.683 10.2799C134.34 9.62949 135.112 9.30421 136 9.30421ZM133.594 1.38288C134.245 0.725576 135.044 0.393555 136 0.393555C136.949 0.393555 137.748 0.725576 138.399 1.38288C139.049 2.04692 139.374 2.85332 139.374 3.80871C139.374 4.74387 139.049 5.54342 138.399 6.20072C137.748 6.85127 136.949 7.18329 136 7.18329C135.044 7.18329 134.245 6.85127 133.594 6.20072C132.944 5.54342 132.625 4.74387 132.625 3.80871C132.625 2.85332 132.944 2.04692 133.594 1.38288ZM153.388 9.30421C155.109 9.30421 156.627 9.75825 157.941 10.6662C159.256 11.5742 160.265 12.7871 160.956 14.3186C161.654 15.8499 162 17.5643 162 19.4685V27.3152C162 28.1826 161.682 28.9482 161.038 29.592C160.394 30.2425 159.635 30.5677 158.747 30.5677C157.873 30.5677 157.101 30.2425 156.444 29.592C155.78 28.9482 155.448 28.1826 155.448 27.3152V19.3938C155.448 18.3978 155.129 17.5508 154.499 16.8393C153.862 16.1345 153.11 15.7754 152.236 15.7754C151.361 15.7754 150.609 16.1345 149.979 16.8393C149.349 17.5508 149.037 18.3978 149.037 19.3938V27.3152C149.037 28.1826 148.712 28.9482 148.068 29.592C147.418 30.2425 146.645 30.5677 145.744 30.5677C144.87 30.5677 144.111 30.2425 143.461 29.592C142.81 28.9482 142.485 28.1826 142.485 27.3152V12.6042C142.485 11.6894 142.81 10.9102 143.461 10.2664C144.111 9.62949 144.87 9.30421 145.744 9.30421C146.34 9.30421 146.889 9.46005 147.391 9.76499C147.892 10.0699 148.292 10.4697 148.583 10.9712C150.04 9.85983 151.639 9.30421 153.388 9.30421H153.388Z" fill="#F1A904"/>
</svg>
